<svg width="198" height="112" viewBox="0 0 198 112" fill="none" xmlns="http://www.w3.org/2000/svg">
<path d="M197.298 30.6474C197.059 29.9191 196.407 29.4298 195.673 29.4298H179.724L184.531 20.5682C185.001 19.7023 184.713 18.6011 183.889 18.1082C183.064 17.6144 182.016 17.9174 181.546 18.7828L175.771 29.4298H126.004C125.271 29.4298 124.618 29.9191 124.379 30.6474C124.141 31.3757 124.37 32.1829 124.948 32.6565L159.12 60.6108V101.293L140.285 108.185C139.494 108.475 139.017 109.322 139.157 110.19C139.297 111.058 140.013 111.693 140.851 111.693H180.825C180.828 111.693 180.832 111.693 180.834 111.693C181.783 111.693 182.552 110.885 182.552 109.889C182.552 109.062 182.022 108.364 181.299 108.151L162.556 101.293V60.6108L196.728 32.6565C197.308 32.1829 197.536 31.3757 197.298 30.6474ZM138.065 38.8131L131.005 33.0375H173.813L170.681 38.8136L138.065 38.8131ZM183.612 38.8131H174.635L177.767 33.0371H190.673L183.612 38.8131Z" fill="#B09E80"/>
<path d="M37.1105 97.6685V59.4551C54.584 57.3955 67.0161 42.3367 67.0161 25.1587C67.0161 18.665 65.2642 10.5882 62.2278 2.75828C61.5828 1.09307 60.0145 0 58.2735 0H8.71453C6.97244 0 5.40431 1.09307 4.75993 2.75851C2.01851 9.82819 -0.111391 18.1617 0.00451488 25.8515C0.00451488 25.8587 0.0064874 25.8659 0.0064874 25.8729C0.343906 42.8148 12.6737 57.4774 29.8753 59.4551V97.6685C18.4865 98.6279 9.75658 103.838 9.75658 106.458C9.75658 109.352 20.3833 111.694 33.4944 111.694C46.6054 111.694 57.2332 109.352 57.2332 106.458C57.2332 103.838 48.5004 98.6267 37.1105 97.6685ZM10.7614 7.44675H56.2257C58.4959 13.8187 59.7811 20.1816 59.7811 25.159C59.7811 26.3675 59.6768 27.5517 59.527 28.7203C57.2649 28.14 54.9203 28.0634 52.4052 28.9848C45.8372 31.3918 41.5791 32.9334 34.8969 30.2362C28.2526 27.5524 24.0539 15.3612 16.0865 16.2888C12.9211 16.6554 10.2053 17.7271 7.75376 19.2157C8.32255 15.5218 9.31509 11.5076 10.7614 7.44675Z" fill="#B09E80"/>
<g clip-path="url(#clip0)">
<path d="M109.46 106.109H106.667C103.588 106.109 101.083 103.604 101.083 100.524V83.0861C101.083 80.8866 102.292 78.8867 104.24 77.8668C104.506 77.7274 104.74 77.5501 104.939 77.3464C112.253 72.1218 115.044 60.1573 115.044 50.9602C115.044 42.3366 113.696 25.6131 113.639 24.9054C113.521 23.4555 112.31 22.3387 110.856 22.3387H85.7246C84.27 22.3387 83.059 23.4555 82.9414 24.9054C82.8841 25.6131 81.5361 42.3366 81.5361 50.9602C81.5361 60.2034 84.3487 72.1373 91.6413 77.3464C91.8409 77.5501 92.0741 77.7274 92.3404 77.8668C94.2879 78.8867 95.4978 80.8868 95.4978 83.0861V100.524C95.4978 103.604 92.9926 106.109 89.9131 106.109H87.1208C85.5787 106.109 84.3285 107.359 84.3285 108.901C84.3285 110.443 85.5787 111.694 87.1208 111.694H109.46C111.002 111.694 112.252 110.443 112.252 108.901C112.252 107.359 111.002 106.109 109.46 106.109ZM87.1208 50.9602C87.1208 44.5289 87.9262 33.0318 88.3096 27.9234H108.271C108.654 33.0318 109.46 44.5289 109.46 50.9602C109.46 57.4035 108.126 63.4182 105.706 67.8961C97.9701 82.2074 87.1208 69.1129 87.1208 50.9602Z" fill="#B09E80"/>
</g>
<defs>
<clipPath id="clip0">
<rect width="89.3548" height="89.3548" fill="white" transform="translate(53.6128 22.3387)"/>
</clipPath>
</defs>
</svg>
